<svg width="1440" height="767" viewBox="0 0 1440 767" fill="none" xmlns="http://www.w3.org/2000/svg">
<path d="M-111.694 289.28C259.171 224.509 490.422 173.004 1169.12 123.612C1601.81 92.1227 1673.66 111.352 1641.04 170.944L1621.75 221.708L1596.14 183.128C1349.4 155.206 698.134 208.781 165.903 291.74C1.04248 317.437 -101.481 337.678 -162.586 352.802L-185.533 381.443C-229.244 394.798 -298.751 386.504 -162.586 352.802L-111.694 289.28Z" fill="white"/>
<path d="M-118.253 369.925C252.612 305.154 483.863 253.649 1162.56 204.257C1595.26 172.768 1667.1 191.997 1634.48 251.589L1615.19 302.353L1589.58 263.773C1342.84 235.851 691.576 289.426 159.344 372.385C-5.51624 398.082 -108.04 418.323 -169.145 433.447L-192.091 462.088C-235.803 475.444 -305.31 467.149 -169.145 433.447L-118.253 369.925Z" fill="white"/>
<path d="M-124.727 451.567C246.138 386.796 477.389 335.291 1156.09 285.899C1588.78 254.41 1660.63 273.639 1628.01 333.231L1608.71 383.995L1583.11 345.415C1336.37 317.493 685.101 371.068 152.87 454.027C-11.9905 479.724 -114.514 499.965 -175.619 515.089L-198.566 543.73C-242.277 557.086 -311.784 548.791 -175.619 515.089L-124.727 451.567Z" fill="white"/>
<path d="M-129.955 537.069C241.496 475.745 473.215 426.39 1152.35 383.303C1585.31 355.834 1656.98 375.73 1623.8 435.016L1604.04 485.599L1578.79 446.783C1332.32 416.57 680.586 464.094 147.607 542.107C-17.4848 566.271 -120.192 585.559 -181.435 600.115L-204.646 628.542C-248.48 641.491 -317.907 632.551 -181.435 600.115L-129.955 537.069Z" fill="white"/>
</svg>
